<svg width="132" height="132" viewBox="0 0 132 132" fill="none" xmlns="http://www.w3.org/2000/svg">
<rect width="128" height="128" rx="64" fill="#0DF246"/>
<rect width="128" height="128" rx="64" fill="white" fill-opacity="0.01"/>
<path d="M48.1861 88.2581C46.9117 88.2581 45.7697 87.8696 44.7602 87.0924C43.7507 86.3152 43.0643 85.3102 42.7011 84.0774L36.2663 60.8628C36.0281 59.9615 36.1834 59.1327 36.7323 58.3763C37.2812 57.62 38.0321 57.2418 38.985 57.2418H50.6956L61.4565 41.106C61.7147 40.6929 62.0686 40.3623 62.5183 40.1141C62.9681 39.8659 63.4411 39.7418 63.9375 39.7418C64.4339 39.7418 64.9069 39.8659 65.3567 40.1141C65.8064 40.3623 66.1603 40.6929 66.4185 41.106L77.1793 57.2418H89.0149C89.9678 57.2418 90.7187 57.62 91.2677 58.3763C91.8166 59.1327 91.9719 59.9615 91.7337 60.8628L85.3438 84.0625C84.9805 85.3052 84.2966 86.3152 83.2921 87.0924C82.2876 87.8696 81.1431 88.2581 79.8587 88.2581H48.1861V88.2581M48.0938 82.5706H79.9062V82.5706V82.5706L85.3166 62.9293H42.6834L48.0938 82.5706V82.5706V82.5706V82.5706M64 77.8696C65.4148 77.8696 66.6218 77.37 67.6209 76.3709C68.62 75.3718 69.1196 74.1648 69.1196 72.75C69.1196 71.3351 68.62 70.1282 67.6209 69.1291C66.6218 68.13 65.4148 67.6304 64 67.6304C62.5851 67.6304 61.3782 68.13 60.3791 69.1291C59.38 70.1282 58.8804 71.3351 58.8804 72.75C58.8804 74.1648 59.38 75.3718 60.3791 76.3709C61.3782 77.37 62.5851 77.8696 64 77.8696V77.8696M57.5054 57.2418H70.432L63.9225 47.6386L57.5054 57.2418V57.2418M64 72.75V72.75V72.75V72.75V72.75V72.75V72.75V72.75V72.75V72.75" fill="#102214"/>
<rect x="80.45" y="80.475" width="51.55" height="51.525" rx="25.7625" fill="#F5F8F6"/>
<rect x="88.45" y="88.475" width="35.55" height="35.525" rx="17.7625" fill="#0F172A"/>
<path d="M113.775 116L107.3 109.525C106.817 109.858 106.254 110.125 105.613 110.325C104.971 110.525 104.275 110.625 103.525 110.625C101.558 110.625 99.8875 109.938 98.5125 108.563C97.1375 107.188 96.45 105.517 96.45 103.55C96.45 101.583 97.1375 99.9125 98.5125 98.5375C99.8875 97.1625 101.558 96.475 103.525 96.475C105.492 96.475 107.163 97.1625 108.538 98.5375C109.913 99.9125 110.6 101.583 110.6 103.55C110.6 104.317 110.5 105.013 110.3 105.638C110.1 106.263 109.833 106.808 109.5 107.275L116 113.8L113.775 116V116M103.525 107.475C104.625 107.475 105.554 107.096 106.313 106.338C107.071 105.579 107.45 104.65 107.45 103.55C107.45 102.45 107.071 101.521 106.313 100.763C105.554 100.004 104.625 99.625 103.525 99.625C102.425 99.625 101.496 100.004 100.738 100.763C99.9792 101.521 99.6 102.45 99.6 103.55C99.6 104.65 99.9792 105.579 100.738 106.338C101.496 107.096 102.425 107.475 103.525 107.475V107.475" fill="#0DF246"/>
</svg>
